<?xml version="1.0" encoding="UTF-8" standalone="no"?>
<svg
   version="1.1"
   viewBox="-5 -10 110 110"
   id="svg2"
   width="110"
   height="110"
   xmlns="http://www.w3.org/2000/svg"
   xmlns:svg="http://www.w3.org/2000/svg">
  <defs
     id="defs2" />
  <path
     d="M 22.762003,-1.8583564 3.0929935,17.810652 l 0.00454,-0.0046 c -1.3551642,1.45665 -1.3137468,3.719861 0.087581,5.121164 1.4059057,1.405907 3.6692354,1.447447 5.1211625,0.09219 l 13.372255,-13.3722203 0.0046,10.7679213 c 0.0231,19.226471 7.674957,37.65525 21.268028,51.254104 13.59413,13.59413 32.027631,21.240828 51.254121,21.26797 2.037468,0 3.687645,-1.650177 3.687645,-3.687645 0,-2.037468 -1.650177,-3.687644 -3.687645,-3.687644 C 76.928148,85.548154 60.366202,78.679882 48.151544,66.464046 35.935707,54.248209 29.067838,37.686259 29.058397,20.415105 V 9.6471827 L 42.43068,23.019468 c 1.43824,1.438239 3.770603,1.438239 5.213444,0 1.438239,-1.43824 1.438239,-3.770603 0,-5.213445 L 27.975234,-1.8630426 v 0.00454 c -1.438241,-1.4382414 -3.770603,-1.4382414 -5.213445,0 z"
     id="path1"
     style="stroke-width:1.18005;fill:currentColor" />
</svg>
